<?xml version="1.0" encoding="UTF-8" standalone="no"?>
<!DOCTYPE svg PUBLIC "-//W3C//DTD SVG 1.1//EN" "http://www.w3.org/Graphics/SVG/1.1/DTD/svg11.dtd">
<!-- Generated by Microsoft Visio, SVG Export case.svg Page-1 -->
<svg xmlns="http://www.w3.org/2000/svg" xmlns:xlink="http://www.w3.org/1999/xlink" xmlns:ev="http://www.w3.org/2001/xml-events"
		width="11.6929in" height="8.26772in" viewBox="0 0 841.89 595.276" xml:space="preserve" color-interpolation-filters="sRGB"
		class="st15">
	<style type="text/css">
	<![CDATA[
		.st1 {fill:#ffffff;fill-opacity:0;stroke:none;stroke-linecap:round;stroke-linejoin:round;stroke-width:0.75}
		.st2 {fill:#ffffff;stroke:#000000;stroke-linecap:round;stroke-linejoin:round;stroke-width:0.24}
		.st3 {fill:#ffffff;stroke:#000000;stroke-linecap:round;stroke-linejoin:round;stroke-width:0.24;visibility:hidden}
		.st4 {fill:#ffffff;stroke:#000000;stroke-linecap:round;stroke-linejoin:round;stroke-width:0.72;visibility:hidden}
		.st5 {fill:#000000;fill-opacity:1;stroke:#000000;stroke-opacity:1;stroke-width:0.35714285714286}
		.st6 {fill:#000000;stroke:#cccccc;stroke-linecap:round;stroke-linejoin:round;stroke-width:0.72;visibility:hidden}
		.st7 {fill:#000000;font-family:Calibri;font-size:4.99999em}
		.st8 {fill:#ffffff}
		.st9 {stroke:#000000;stroke-linecap:round;stroke-linejoin:round;stroke-width:0.75}
		.st10 {fill:#ffffff;stroke:#000000;stroke-linecap:round;stroke-linejoin:round;stroke-width:0.72}
		.st11 {fill:none;stroke:#000000;stroke-linecap:round;stroke-linejoin:round;stroke-width:0.72;visibility:hidden}
		.st12 {fill:#ffffff;stroke:#000000;stroke-linecap:round;stroke-linejoin:round;stroke-width:0.75}
		.st13 {fill:none;stroke:none;stroke-linecap:round;stroke-linejoin:round;stroke-width:0.75}
		.st14 {fill:#000000;font-family:Calibri;font-size:2.25em}
		.st15 {fill:none;fill-rule:evenodd;font-size:12px;overflow:visible;stroke-linecap:square;stroke-miterlimit:3}
	]]>
	</style>

	<defs id="Patterns_And_Gradients">
		<linearGradient id="grad0-11" x1="0" y1="0" x2="1" y2="0" gradientTransform="rotate(90 0.5 0.5)">
			<stop offset="0.01" stop-color="#bfbfbf" stop-opacity="1"/>
			<stop offset="0.5" stop-color="#757575" stop-opacity="1"/>
			<stop offset="1" stop-color="#bfbfbf" stop-opacity="1"/>
		</linearGradient>
	</defs>
	<defs id="Markers">
		<g id="lend1">
			<path d="M 1 -1 L 0 0 L 1 1 " style="stroke-linecap:round;stroke-linejoin:round;fill:none"/>
		</g>
		<marker id="mrkr1-37" class="st5" orient="auto" markerUnits="strokeWidth" overflow="visible">
			<use xlink:href="#lend1" transform="scale(-2.8,-2.8) "/>
		</marker>
	</defs>
	<g>
		<title>Page-1</title>
		<g id="group42-1" transform="translate(85.6063,-286.02)">
			<title>Plain</title>
			<g id="group43-2">
				<title>Sheet.43</title>
				<g id="shape44-3" transform="translate(2.83465,2.83465)">
					<title>Sheet.44</title>
				</g>
				<g id="shape43-5">
					<path d="M0 595.28 L112.95 595.28 L225.9 595.28 L225.9 327.76 L112.95 327.76 L0 327.76 L0 595.28 Z" class="st1"/>
				</g>
			</g>
			<g id="group45-7" transform="translate(0,-229.246)">
				<title>Sheet.45</title>
				<g id="shape46-8">
					<title>Sheet.46</title>
				</g>
				<g id="shape45-12"/>
			</g>
		</g>
		<g id="group1-14" transform="translate(499.334,-331.436)">
			<title>Task</title>
			<desc>Core</desc>
			<g id="shape2-15">
				<title>Sheet.2</title>
				<rect x="0" y="388.128" width="258.934" height="207.147" rx="5.66929" ry="5.66929" class="st2"/>
			</g>
			<g id="group3-17">
				<title>Sheet.3</title>
				<g id="shape4-18">
					<title>Sheet.4</title>
					<rect x="0" y="388.128" width="258.934" height="207.147" rx="2.12598" ry="2.12598" class="st3"/>
				</g>
				<g id="shape5-20" transform="translate(1.8,-1.8)">
					<title>Sheet.5</title>
					<rect x="0" y="391.728" width="255.334" height="203.547" rx="2.12598" ry="2.12598" class="st3"/>
				</g>
			</g>
			<g id="shape6-22" transform="translate(130.278,-2.12598)">
				<title>Sheet.6</title>
			</g>
			<g id="group7-24" transform="translate(130.638,-2.83465)">
				<title>Sheet.7</title>
				<g id="shape8-25">
					<title>Sheet.8</title>
					<rect x="0" y="583.937" width="11.3386" height="11.3386" class="st4"/>
				</g>
				<g id="shape9-27" transform="translate(2.83465,-2.83465)">
					<title>Sheet.9</title>
				</g>
			</g>
			<g id="shape10-29" transform="translate(130.638,-3.68504)">
				<title>Sheet.10</title>
			</g>
			<g id="shape11-31" transform="translate(131.752,-3.68504)">
				<title>Sheet.11</title>
			</g>
			<g id="group12-33" transform="translate(130.278,-2.83465)">
				<title>Sheet.12</title>
				<g id="shape13-34" transform="translate(9.93392,1180.21) rotate(179.753)">
					<title>Sheet.13</title>
				</g>
			</g>
			<g id="shape14-38" transform="translate(3.50394,-193.643)">
				<title>Sheet.14</title>
			</g>
			<g id="shape15-40" transform="translate(3.00394,-193.143)">
				<title>Sheet.15</title>
			</g>
			<g id="group16-42" transform="translate(2.50394,-194.643)">
				<title>Sheet.16</title>
				<g id="shape17-43">
					<title>Sheet.17</title>
					<rect x="0" y="587.276" width="12" height="8" class="st6"/>
				</g>
				<g id="shape18-45" transform="translate(-1.9984E-15,-4.20339)">
					<title>Sheet.18</title>
				</g>
			</g>
			<g id="shape19-47" transform="translate(2.50394,-194.643)">
				<title>Sheet.19</title>
			</g>
			<g id="shape20-49" transform="translate(3.50394,-193.643)">
				<title>Sheet.20</title>
			</g>
			<g id="shape21-51" transform="translate(3.00394,-194.643)">
				<title>Sheet.21</title>
			</g>
			<g id="shape22-53" transform="translate(3.00394,-194.643)">
				<title>Sheet.22</title>
			</g>
			<g id="shape23-55" transform="translate(-454.51,590.967) rotate(-90)">
				<title>Sheet.23</title>
			</g>
			<g id="shape1-57">
				<text x="72.26" y="509.7" class="st7">Core</text>			</g>
		</g>
		<g id="shape24-59" transform="translate(577.014,-82.0303)">
			<title>Data Store</title>
			<path d="M103.57 586.41 A51.7868 8.86562 0 0 1 0 586.41 L0 521.28 A51.7868 8.86562 0 0 1 103.57 521.28 L103.57 586.41
						 Z" class="st8"/>
			<path d="M103.57 586.41 A51.7868 8.86562 0 0 1 0 586.41 L0 521.28 A51.7868 8.86562 0 0 1 103.57 521.28 L103.57 586.41"
					class="st9"/>
			<path d="M0 521.28 A51.7868 8.86562 -180 1 0 103.57 521.28" class="st9"/>
			<path d="M0 530.92 A51.7868 8.86562 -180 1 0 103.57 530.92" class="st9"/>
			<path d="M0 526.1 A51.7868 8.86562 -180 1 0 103.57 526.1" class="st9"/>
		</g>
		<g id="group25-65" transform="translate(94.1102,-294.524)">
			<title>Gateway</title>
			<g id="shape26-66">
				<title>Sheet.26</title>
				<path d="M104.45 595.28 L208.9 489.16 L104.45 383.04 L0 489.16 L104.45 595.28 Z" class="st10"/>
			</g>
			<g id="shape27-68" transform="translate(72.2037,-54.1708)">
				<title>Sheet.27</title>
			</g>
			<g id="group28-70" transform="translate(56.0335,-44.9211)">
				<title>Sheet.28</title>
				<g id="shape29-71">
					<title>Sheet.29</title>
				</g>
				<g id="shape30-73" transform="translate(19.8063,-30.2579)">
					<title>Sheet.30</title>
				</g>
			</g>
			<g id="shape31-75" transform="translate(54.3718,-42.8207)">
				<title>Sheet.31</title>
			</g>
			<g id="shape32-77" transform="translate(59.6281,-50.4973)">
				<title>Sheet.32</title>
			</g>
			<g id="shape33-79" transform="translate(58.3847,-46.4253)">
				<title>Sheet.33</title>
			</g>
			<g id="group34-81" transform="translate(56.0335,-44.9211)">
				<title>Sheet.34</title>
				<g id="shape35-82">
					<title>Sheet.35</title>
					<ellipse cx="48.4146" cy="534.077" rx="48.4146" ry="61.1981" class="st11"/>
				</g>
				<g id="shape36-84" transform="translate(19.8063,-30.2579)">
					<title>Sheet.36</title>
				</g>
			</g>
			<g id="group37-86" transform="translate(56.0335,-44.9211)">
				<title>Sheet.37</title>
				<g id="shape38-87">
					<title>Sheet.38</title>
					<ellipse cx="48.4146" cy="534.077" rx="48.4146" ry="61.1981" class="st11"/>
				</g>
				<g id="shape39-89" transform="translate(18.8817,-21.1745)">
					<title>Sheet.39</title>
				</g>
			</g>
		</g>
		<g id="shape40-91" transform="translate(191.339,933.862) rotate(-143.13)">
			<title>Simple Arrow</title>
			<path d="M0 595.28 L11.34 583.94 L11.34 589.61 L312.45 589.61 L312.45 595.28 L312.45 600.94 L11.34 600.94 L11.34 606.61
						 L0 595.28 Z" class="st12"/>
		</g>
		<g id="shape41-93" transform="translate(32.7625,427.383) rotate(-91.7357)">
			<title>Simple Arrow.41</title>
			<path d="M0 595.28 L11.34 583.94 L11.34 589.61 L136.78 589.61 L136.78 595.28 L136.78 600.94 L11.34 600.94 L11.34 606.61
						 L0 595.28 Z" class="st12"/>
		</g>
		<g id="shape47-95" transform="translate(143.67,-349.574)">
			<title>Sheet.47</title>
			<desc>Service A</desc>
			<rect x="0" y="493.854" width="109.071" height="101.422" class="st13"/>
			<text x="4.43" y="552.66" class="st14">Service A</text>		</g>
	</g>
</svg>
